<svg width="60" height="60" viewBox="0 0 60 60" fill="none" xmlns="http://www.w3.org/2000/svg">
<circle cx="30" cy="30" r="30" fill="white" fill-opacity="0.69"/>
<circle cx="30" cy="30" r="25" fill="white"/>
<g clip-path="url(#clip0_203_1510)">
<path d="M35.6133 45.9999C35.4617 45.8774 35.2723 45.9032 35.0992 45.864C33.8816 45.5849 32.8065 45.0307 31.9101 44.1449C31.7643 44.0007 31.6193 43.9507 31.4216 43.9507C27.2191 43.9549 23.0166 43.9507 18.8141 43.9582C18.2737 43.959 17.8 43.8357 17.4259 43.4199C17.1022 43.059 17 42.6282 17 42.1532C17.0025 36.9149 17.0016 31.6774 17.0016 26.439C17.0016 25.0432 17.0008 23.6482 17.0016 22.2524C17.0025 21.1182 17.6649 20.4457 18.7803 20.4449C19.7665 20.4449 20.7535 20.4407 21.7396 20.4482C21.9184 20.4499 22.0428 20.3965 22.1697 20.2674C23.4071 19.0032 24.652 17.7465 25.8927 16.4857C25.9792 16.3982 26.0896 16.3407 26.0179 16.1515C25.6678 15.2307 25.9833 14.4874 26.8665 14.0857C26.9101 14.0657 26.9703 14.0657 26.9793 13.999H27.6574C27.8213 14.0724 27.9943 14.1299 28.1467 14.2224C28.833 14.6382 29.0349 15.4482 28.6625 16.2815C28.7053 16.3324 28.7482 16.3899 28.7984 16.4399C30.0638 17.7199 31.3318 18.9974 32.5939 20.2799C32.7117 20.3999 32.832 20.4474 32.9976 20.4465C34.0043 20.4399 35.0111 20.4415 36.0187 20.444C37.0493 20.4457 37.7166 21.114 37.7175 22.1599C37.7207 25.6065 37.7216 29.0532 37.7125 32.5007C37.7125 32.754 37.7743 32.8474 38.0256 32.9115C40.9931 33.6665 43.0684 36.4099 42.9967 39.4599C42.9234 42.5749 40.7723 45.219 37.7924 45.864C37.5799 45.9099 37.3517 45.8824 37.1539 45.9999H35.6125H35.6133ZM30.1026 41.1249H29.7533C26.948 41.1249 24.142 41.1249 21.3368 41.1249C21.2445 41.1249 21.1489 41.1357 21.06 41.1174C20.8672 41.0782 20.7502 40.9574 20.7502 40.7499C20.7502 40.5424 20.8688 40.4224 21.0608 40.3824C21.1498 40.364 21.2453 40.374 21.3376 40.374C24.0917 40.374 26.8459 40.374 29.6 40.374H29.9452C29.8431 39.664 29.8538 38.9815 29.951 38.2707H29.5893C26.8558 38.2707 24.1222 38.2707 21.3878 38.2707C21.2956 38.2707 21.2025 38.274 21.1102 38.2682C20.896 38.254 20.7617 38.1407 20.7502 37.919C20.7378 37.6965 20.8639 37.5699 21.0731 37.5332C21.1736 37.5157 21.2774 37.5199 21.3804 37.5199C23.4977 37.5199 25.6142 37.5199 27.7315 37.5199C28.4507 37.5199 29.17 37.5199 29.89 37.5199C30.0004 37.5199 30.1174 37.5457 30.1619 37.3915C30.3654 36.694 30.6982 36.0599 31.1241 35.4299H30.7526C27.6178 35.4299 24.4839 35.4299 21.3491 35.4299C21.247 35.4299 21.1399 35.4407 21.0427 35.4165C20.8532 35.3699 20.737 35.2424 20.7494 35.0349C20.7617 34.8315 20.8754 34.7099 21.0764 34.6865C21.1679 34.6757 21.261 34.6824 21.3541 34.6824C24.7352 34.6824 28.1163 34.6807 31.4974 34.6865C31.6868 34.6865 31.8178 34.6307 31.9546 34.4999C32.6326 33.849 33.4178 33.3724 34.3009 33.0624C35.1602 32.7607 36.0475 32.6549 36.9776 32.7024V32.404C36.9776 29.019 36.9776 25.634 36.9776 22.249C36.9776 21.5024 36.6687 21.1957 35.9231 21.1965C33.7654 21.199 31.6069 21.2057 29.4493 21.2057C25.9141 21.2057 22.3789 21.1999 18.8438 21.1965C18.0545 21.1965 17.7423 21.5115 17.7423 22.3115C17.7423 28.9049 17.7423 35.4974 17.7423 42.0907C17.7423 42.8949 18.0463 43.2032 18.8405 43.2032C22.8181 43.2032 26.7948 43.2032 30.7724 43.2015C30.8589 43.2015 30.952 43.2315 31.0558 43.159C30.6232 42.5365 30.3168 41.8565 30.1034 41.1257L30.1026 41.1249ZM36.4405 33.4765C33.2464 33.4699 30.6002 36.1157 30.6282 39.3457C30.657 42.649 33.2167 45.2324 36.4289 45.2474C39.6313 45.2624 42.247 42.6132 42.2585 39.3582C42.2701 36.109 39.6725 33.4832 36.4397 33.4757L36.4405 33.4765ZM31.6951 20.4274C30.5211 19.2382 29.3891 18.0915 28.2555 16.9465C28.2011 16.8915 28.1542 16.8174 28.0495 16.8724C27.5577 17.1315 27.0658 17.0732 26.6646 16.8749C25.4634 18.089 24.2985 19.2657 23.1484 20.4274H31.6951ZM27.3641 16.2557C27.7867 16.2574 28.1138 15.9424 28.1204 15.5274C28.127 15.0982 27.7917 14.7515 27.369 14.7515C26.9538 14.7515 26.6061 15.1057 26.6103 15.524C26.6144 15.9332 26.9447 16.254 27.3641 16.2565V16.2557Z" fill="#304052"/>
<path d="M27.3814 24.0283C25.3794 24.0283 23.3775 24.0283 21.3755 24.0283C21.2626 24.0283 21.1481 24.0325 21.0385 24.0117C20.8548 23.9767 20.7535 23.8517 20.7502 23.6617C20.7461 23.4717 20.8441 23.345 21.0254 23.3008C21.1135 23.2792 21.2082 23.2783 21.3005 23.2783C25.3456 23.2775 29.3908 23.2775 33.4359 23.2783C33.538 23.2783 33.6427 23.2808 33.7407 23.3058C33.9096 23.3483 34.001 23.4767 34.0035 23.6475C34.006 23.8325 33.9096 23.9683 33.7259 24.0075C33.6171 24.0308 33.5018 24.0275 33.3889 24.0275C31.387 24.0283 29.385 24.0275 27.383 24.0275L27.3814 24.0283Z" fill="#304052"/>
<path d="M27.3476 28.9842C29.3603 28.9842 31.3729 28.9842 33.3848 28.9842C33.4771 28.9842 33.5702 28.9825 33.6616 28.9892C33.8668 29.0042 33.9837 29.13 34.001 29.3267C34.0183 29.5275 33.9079 29.665 33.7143 29.7125C33.6163 29.7367 33.5108 29.735 33.4087 29.735C29.3833 29.7359 25.3588 29.7359 21.3335 29.735C21.2214 29.735 21.1053 29.7317 20.9998 29.7009C20.8202 29.6484 20.7329 29.51 20.751 29.3209C20.7683 29.1325 20.8762 29.0167 21.0632 28.9925C21.1646 28.98 21.2684 28.985 21.3705 28.985C23.3626 28.985 25.3547 28.985 27.3468 28.985L27.3476 28.9842Z" fill="#304052"/>
<path d="M27.3682 32.5742C25.3654 32.5742 23.3634 32.5742 21.3607 32.5742C21.2684 32.5742 21.1753 32.5775 21.0838 32.5684C20.882 32.5475 20.7658 32.4284 20.751 32.2259C20.7354 32.0184 20.849 31.8917 21.0377 31.8392C21.1151 31.8175 21.2008 31.8242 21.2824 31.8242C25.3382 31.8242 29.3949 31.8242 33.4507 31.8242C33.5422 31.8242 33.6394 31.8192 33.7251 31.8442C33.9137 31.9 34.0225 32.0375 34.0002 32.24C33.9804 32.4209 33.8725 32.5459 33.683 32.5667C33.5817 32.5775 33.4779 32.5742 33.3757 32.575C31.373 32.575 29.371 32.575 27.3682 32.575V32.5742Z" fill="#304052"/>
<path d="M27.3484 26.8775C25.3456 26.8775 23.3429 26.8775 21.3409 26.8775C21.2486 26.8775 21.1539 26.8867 21.0641 26.8708C20.8696 26.835 20.7535 26.7142 20.7502 26.5075C20.7469 26.3 20.8655 26.1783 21.0558 26.1367C21.1448 26.1175 21.2396 26.1275 21.3318 26.1275C25.358 26.1275 29.3834 26.1275 33.4095 26.1275C33.4606 26.1275 33.5125 26.1275 33.5636 26.1275C33.8157 26.1242 33.9961 26.2342 33.9994 26.5C34.0019 26.7658 33.8272 26.88 33.5718 26.8792C33.1607 26.8775 32.7504 26.8792 32.3393 26.8792C30.676 26.8792 29.0118 26.8792 27.3484 26.8792V26.8775Z" fill="#304052"/>
<path d="M39.1213 38.91C39.0974 39.42 39.0612 39.9309 39.2383 40.4242C39.4146 40.915 39.7128 41.3434 39.9913 41.77C40.3258 42.2825 40.3241 42.74 39.8496 43.14C39.3512 43.56 38.7465 43.725 38.1277 43.8375C36.7115 44.095 35.3069 44.0617 33.9253 43.6217C33.5809 43.5125 33.2563 43.355 32.9844 43.1075C32.5577 42.7175 32.547 42.2509 32.888 41.7825C33.5611 40.8592 33.9459 39.8459 33.7432 38.6675C33.6863 38.3392 33.6995 38.005 33.7366 37.6709C33.7984 37.11 34.0595 36.6642 34.4904 36.3259C34.6593 36.1934 34.7359 36.0584 34.7549 35.84C34.8414 34.8225 35.6455 34.0667 36.5566 34.1217C37.3434 34.1692 38.0379 34.9242 38.1294 35.8617C38.1483 36.055 38.2011 36.185 38.3559 36.3009C39.006 36.7867 39.1996 37.4734 39.1625 38.2542C39.1518 38.4725 39.1353 38.6909 39.1213 38.9092V38.91ZM38.6047 41.0425C38.6295 41.0425 38.6542 41.0434 38.6789 41.0442C38.669 41.025 38.6591 41.0059 38.6484 40.9859C38.5809 40.7692 38.4993 40.555 38.4482 40.3342C38.295 39.6642 38.3823 38.9875 38.4161 38.3134C38.4466 37.7117 38.3386 37.1817 37.8122 36.8042C37.0213 36.2384 35.8218 36.2434 35.0424 36.8192C34.4756 37.2384 34.4146 37.825 34.4624 38.4625C34.5258 39.3184 34.6025 40.1767 34.1798 41.0475C35.6916 40.6967 37.1498 40.66 38.6039 41.0417L38.6047 41.0425ZM34.7623 41.7292C34.3108 41.8025 33.8948 41.95 33.5191 42.2125C33.3469 42.3325 33.3461 42.455 33.5076 42.5842C33.7201 42.7542 33.9656 42.8592 34.2218 42.935C35.4972 43.315 36.7873 43.3334 38.0865 43.0842C38.5314 42.9992 38.9639 42.8734 39.3413 42.605C39.4813 42.5059 39.5818 42.3775 39.3891 42.2367C39.0035 41.955 38.5726 41.7925 38.108 41.7325C37.7891 42.4617 37.2858 42.9117 36.5047 42.9342C35.6611 42.9592 35.1001 42.5142 34.7631 41.7284L34.7623 41.7292ZM35.5367 35.7192C36.1554 35.575 36.742 35.5917 37.336 35.705C37.1968 35.1867 36.8532 34.8717 36.4454 34.8717C36.0319 34.8717 35.6834 35.1817 35.5367 35.7192ZM35.5244 41.6117C35.7921 42.055 36.1307 42.2309 36.5657 42.1817C36.9043 42.1434 37.1704 41.975 37.3352 41.5967C36.7198 41.5534 36.1439 41.53 35.5244 41.6117Z" fill="#304052"/>
<path d="M35.7114 37.6133C35.4074 38.1016 35.6554 38.6575 35.6232 39.1975C35.6117 39.3908 35.5005 39.5041 35.3143 39.5233C35.1363 39.5416 34.9543 39.4833 34.9287 39.295C34.8504 38.7125 34.7252 38.1225 34.9361 37.5416C35.0457 37.24 35.2821 37.1316 35.5104 37.2475C35.6446 37.3158 35.6957 37.4333 35.7122 37.6133H35.7114Z" fill="#304052"/>
</g>
<defs>
<clipPath id="clip0_203_1510">
<rect width="26" height="32" fill="white" transform="translate(17 14)"/>
</clipPath>
</defs>
</svg>
