<svg width="14" height="14" viewBox="0 0 14 14" fill="none" xmlns="http://www.w3.org/2000/svg">
<path fill-rule="evenodd" clip-rule="evenodd" d="M4.66663 3.50008H3.49996V2.91675H2.33329V4.66675H11.6666V2.91675H10.5V3.50008H9.33329V2.91675H4.66663V3.50008ZM11.6666 5.83342H2.33329V11.6667H11.6666V5.83342ZM9.33329 1.75008H4.66663V1.16675H3.49996V1.75008H2.33329C1.68896 1.75008 1.16663 2.27242 1.16663 2.91675V11.6667C1.16663 12.3111 1.68896 12.8334 2.33329 12.8334H11.6666C12.311 12.8334 12.8333 12.3111 12.8333 11.6667V2.91675C12.8333 2.27242 12.311 1.75008 11.6666 1.75008H10.5V1.16675H9.33329V1.75008ZM4.08329 8.16675V7.00008H5.24996V8.16675H4.08329ZM6.41663 8.16675H7.58329V7.00008H6.41663V8.16675ZM9.91663 8.16675H8.74996V7.00008H9.91663V8.16675ZM4.08329 9.33341V10.5001H5.24996V9.33341H4.08329ZM7.58329 10.5001H6.41663V9.33341H7.58329V10.5001Z" fill="#246BFD"/>
</svg>
