<svg width="40" height="40" viewBox="0 0 40 40" fill="none" xmlns="http://www.w3.org/2000/svg">
<circle cx="20" cy="20" r="20" fill="#F5F6F7"/>
<g clip-path="url(#clip0_203_1378)">
<path d="M25.5475 20.4918C25.5475 22.7812 25.5511 25.071 25.5465 27.3604C25.543 29.0034 24.4963 30.3585 22.8687 30.8459C22.2408 31.0338 21.5928 30.9971 20.9492 30.9971C17.8824 30.9986 14.8155 31 11.7487 30.9932C10.2052 30.9899 8.86674 30.1237 8.28421 28.7754C8.09574 28.3396 8.00101 27.886 8.00101 27.415C8.0005 23.7275 8.00101 20.0396 8 16.3522C8 15.9536 8.14211 15.6145 8.43841 15.3367C10.2293 13.657 12.0218 11.9783 13.8117 10.2976C14.0279 10.0947 14.2829 10.0024 14.5812 10.0024C16.9194 10.0019 19.2571 10.0029 21.5953 10C23.1468 9.99807 24.3502 10.586 25.1131 11.9106C25.4271 12.456 25.5485 13.0507 25.548 13.6715C25.547 15.9449 25.548 18.2184 25.548 20.4918H25.5475ZM9.50521 17.1787C9.49866 20.3169 9.49211 23.4556 9.48556 26.5937C9.48354 27.4894 9.53847 28.5082 10.255 29.0821C10.8235 29.5377 11.6313 29.5604 12.3725 29.5609C15.264 29.5633 18.1555 29.5657 21.047 29.5676C21.5686 29.5676 22.1002 29.5672 22.5971 29.4145C24.0574 28.9662 24.0569 27.4821 24.0564 26.2551C24.0539 22.2406 24.0519 18.2261 24.0494 14.2116C24.0494 13.6821 24.0453 13.1353 23.8256 12.6498C23.621 12.1971 23.23 11.8251 22.7563 11.6329C22.2519 11.4275 21.6865 11.4266 21.1387 11.4285C19.2803 11.4353 17.4223 11.4425 15.5638 11.4493C15.6299 12.2507 15.6954 13.0594 15.588 13.857C15.4807 14.6546 15.1854 15.4507 14.6135 16.0387C13.9967 16.673 13.1077 17.0145 12.2133 17.1444C11.3188 17.2744 10.4077 17.2116 9.50571 17.1483C9.50571 17.1585 9.50571 17.1681 9.50571 17.1783L9.50521 17.1787Z" fill="#304052"/>
<path d="M31.2494 13.1902C32.5394 13.5472 33.0459 14.581 32.997 15.5187C32.9662 16.1115 32.9925 16.7066 32.9909 17.3008C32.9904 17.6313 32.8226 17.8347 32.552 17.84C32.2744 17.8453 32.1086 17.6347 32.0955 17.2917C32.0844 17.0052 32.032 16.7042 32.0446 16.4366C32.0602 16.1095 32.0799 15.7738 32.095 15.4424C32.1061 15.197 32.0824 14.9487 31.9876 14.7187C31.8596 14.4081 31.6233 14.196 31.2605 14.0636V18.4777H27.6307C27.6307 18.2907 27.6307 18.1163 27.6307 17.9414C27.6312 16.2714 27.6257 14.6013 27.6348 12.9313C27.6398 12.0013 28.305 11.282 29.2272 11.1786C30.2783 11.0607 31.1809 11.7825 31.2489 12.7989C31.2575 12.9264 31.2499 13.0545 31.2499 13.1897L31.2494 13.1902Z" fill="#304052"/>
<path d="M30.9375 19.2439C30.9375 20.3217 30.9445 21.3811 30.9355 22.4405C30.9279 23.3159 30.9667 24.1917 30.8946 25.0661C30.8201 25.9734 30.6457 26.8589 30.2945 27.7077C30.1947 27.9482 30.0687 28.1767 29.8641 28.3502C29.6993 28.4903 29.725 28.6671 29.7296 28.841C29.7346 29.0357 29.7185 29.1995 29.4474 29.1922C29.2146 29.1859 29.1158 29.0985 29.1264 28.8347C29.1359 28.6062 29.0684 28.4338 28.9157 28.2482C28.4567 27.6898 28.3196 27.0033 28.1699 26.3284C27.9281 25.2352 27.9573 24.1251 27.9588 23.0168C27.9603 21.828 27.9588 20.6391 27.9578 19.4502C27.9578 19.3869 27.9578 19.3241 27.9578 19.2444H30.9365L30.9375 19.2439Z" fill="#304052"/>
<path d="M16.7783 19.3439C15.2202 19.3439 13.6625 19.3449 12.1044 19.3434C11.7068 19.3434 11.5073 19.197 11.5048 18.9183C11.5022 18.642 11.7144 18.4888 12.1044 18.4883C14.9944 18.4883 17.8839 18.4883 20.7739 18.4883C21.0334 18.4883 21.2934 18.4835 21.5529 18.4898C21.8885 18.498 22.0478 18.6396 22.0407 18.9106C22.0337 19.1888 21.8538 19.3425 21.5277 19.3425C19.9444 19.3434 18.3616 19.3425 16.7783 19.3425V19.3434V19.3439Z" fill="#2377B7"/>
<path d="M16.8 20.8845C18.349 20.8845 19.8986 20.885 21.4476 20.8835C21.8619 20.8835 22.0397 20.9971 22.0413 21.2729C22.0423 21.5845 21.8503 21.7386 21.4527 21.7386C18.4634 21.7391 15.4737 21.7386 12.4844 21.7386C12.3171 21.7386 12.1493 21.7454 11.982 21.7381C11.6872 21.7251 11.5058 21.5579 11.5078 21.313C11.5098 21.0517 11.6948 20.8855 12.0021 20.885C13.6016 20.8831 15.201 20.884 16.8005 20.884L16.8 20.8845Z" fill="#2377B7"/>
<path d="M16.7586 24.1218C15.1753 24.1218 13.592 24.1232 12.0087 24.1208C11.6418 24.1203 11.4161 23.8551 11.5295 23.5614C11.6141 23.3425 11.7981 23.2754 12.0293 23.2759C13.4368 23.2783 14.8442 23.2764 16.2517 23.2768C17.9524 23.2773 19.6532 23.2793 21.3534 23.2807C21.429 23.2807 21.5041 23.2788 21.5797 23.2817C21.877 23.2938 22.0428 23.4377 22.0402 23.6812C22.0377 23.9416 21.8674 24.1165 21.5832 24.1194C20.9049 24.1271 20.2261 24.1242 19.5478 24.1247C18.6181 24.1252 17.6884 24.1247 16.7581 24.1247C16.7581 24.1237 16.7581 24.1227 16.7581 24.1213L16.7586 24.1218Z" fill="#2377B7"/>
<path d="M13.262 26.0894C13.7049 26.0879 13.9921 26.2961 14.2582 26.5343C14.8246 27.0415 14.8186 27.0372 15.4968 26.7164C16.2442 26.3633 17.0267 26.2729 17.8381 26.4778C18.2024 26.5696 18.3405 26.7584 18.2629 27.0401C18.1908 27.3024 17.9288 27.4188 17.5982 27.3338C16.9638 27.17 16.3727 27.284 15.8093 27.5845C15.6853 27.6507 15.5629 27.7212 15.4338 27.7783C14.9662 27.9865 14.5218 27.9469 14.1151 27.6386C13.8984 27.4744 13.7009 27.2874 13.4842 27.1237C13.266 26.9584 13.1576 26.9855 13.0422 27.2304C12.9878 27.3459 12.9611 27.4739 12.9289 27.5981C12.8558 27.8802 12.6411 28.0246 12.3569 27.9783C12.116 27.9391 11.9951 27.756 12.0198 27.4681C12.0752 26.8227 12.5036 26.2715 13.0659 26.1251C13.1461 26.1043 13.2292 26.0956 13.2614 26.0898L13.262 26.0894Z" fill="#2377B7"/>
</g>
<defs>
<clipPath id="clip0_203_1378">
<rect width="25" height="21" fill="white" transform="translate(8 10)"/>
</clipPath>
</defs>
</svg>
