<svg width="375" height="110" viewBox="0 0 375 105" fill="none" xmlns="http://www.w3.org/2000/svg">
<g opacity="0.15">
<path d="M370.126 115.92L372.448 113.647L302.371 45.0388C300.84 43.5396 300 41.5407 300 39.4128C300 37.285 300.84 35.286 302.371 33.7868L375 -37.3358L372.678 -39.6088L300.049 31.4978C297.892 33.6095 296.707 36.4145 296.707 39.3967C296.707 42.379 297.892 45.1839 300.049 47.2957L370.126 115.92Z" fill="#679C71"/>
<path d="M266.18 12.9436C269.226 12.9436 272.091 11.783 274.248 9.67122L356.229 -70.5916L353.908 -72.8646L271.926 7.38214C270.395 8.88132 268.353 9.70346 266.18 9.70346C264.007 9.70346 261.965 8.88132 260.434 7.38214L205.966 -45.9437C202.805 -49.0388 202.805 -54.0845 205.966 -57.1796L236.378 -86.9537L234.056 -89.2267L203.661 -59.4687C199.215 -55.1162 199.215 -48.0233 203.661 -43.6708L258.128 9.6551C260.285 11.7669 263.15 12.9275 266.197 12.9275L266.18 12.9436Z" fill="#679C71"/>
<path d="M162.81 174.372L269.061 70.3637C270.593 68.8646 272.634 68.0424 274.808 68.0424C276.981 68.0424 279.007 68.8646 280.554 70.3637L366.998 155.011L369.319 152.738L282.859 68.0908C280.703 65.979 277.838 64.8184 274.791 64.8184C271.745 64.8184 268.88 65.979 266.723 68.0908L160.472 172.115L162.794 174.388L162.81 174.372Z" fill="url(#paint0_linear_203_1336)"/>
<path d="M184.183 -89.2292L186.512 -86.9495L63.3891 33.5924L61.0606 31.3126L184.183 -89.2292Z" fill="#679C71"/>
<path d="M170.878 108.617C173.924 108.617 176.789 107.457 178.946 105.345L239.506 46.0544C241.663 43.9426 242.849 41.1377 242.849 38.1554C242.849 35.1732 241.663 32.3683 239.506 30.2565L181.186 -26.8415C176.756 -31.1779 169.528 -31.194 165.082 -26.8738L104.243 32.1587C102.069 34.2705 100.867 37.0754 100.867 40.0737C100.867 43.0721 102.053 45.877 104.21 48.0049L162.81 105.377C164.967 107.489 167.832 108.649 170.878 108.649V108.617ZM178.864 -24.5686L237.184 32.5295C238.716 34.0286 239.555 36.0276 239.555 38.1554C239.555 40.2833 238.716 42.2661 237.184 43.7814L176.625 103.072C175.093 104.571 173.052 105.393 170.878 105.393C168.705 105.393 166.663 104.571 165.132 103.072L106.531 45.6997C105 44.2005 104.144 42.1855 104.16 40.0576C104.16 37.9297 105.016 35.9308 106.564 34.4317L167.404 -24.6008C170.565 -27.6798 175.703 -27.6636 178.864 -24.5686Z" fill="#679C71"/>
<path d="M69.9945 201.68C73.0406 201.68 75.9056 200.519 78.0625 198.407L138.622 139.117C143.068 134.764 143.068 127.671 138.622 123.319L80.3018 66.2209C75.8727 61.8845 68.6443 61.8684 64.1987 66.1886L3.35892 125.221C1.18547 127.333 -0.0164795 130.138 -0.0164795 133.136C-0.0164795 136.135 1.16904 138.939 3.326 141.067L61.91 198.439C64.0669 200.551 66.9319 201.712 69.978 201.712L69.9945 201.68ZM77.9802 68.4938L136.301 125.592C139.462 128.687 139.462 133.733 136.301 136.828L75.7409 196.118C74.2096 197.617 72.1679 198.439 69.9945 198.439C67.821 198.439 65.7793 197.617 64.2481 196.118L5.66409 138.746C4.1328 137.247 3.2766 135.232 3.29306 133.104C3.29306 130.976 4.14928 128.977 5.69702 127.478L66.5368 68.4455C69.6981 65.3665 74.8353 65.3826 77.9967 68.4777L77.9802 68.4938Z" fill="#679C71"/>
</g>
<defs>
<linearGradient id="paint0_linear_203_1336" x1="322.254" y1="100.572" x2="175.65" y2="162.411" gradientUnits="userSpaceOnUse">
<stop stop-color="#1D56CA"/>
<stop offset="1" stop-color="#0750E7" stop-opacity="0"/>
</linearGradient>
</defs>
</svg>
